<svg width="21" height="21" viewBox="0 0 21 21" fill="none" xmlns="http://www.w3.org/2000/svg">
<path d="M16.0417 14.617L20.3247 18.899L18.9097 20.314L14.6277 16.031C13.0345 17.3082 11.0527 18.0029 9.01074 18C4.04274 18 0.0107422 13.968 0.0107422 9C0.0107422 4.032 4.04274 0 9.01074 0C13.9787 0 18.0107 4.032 18.0107 9C18.0136 11.042 17.319 13.0237 16.0417 14.617ZM14.0357 13.875C15.3049 12.5699 16.0136 10.8204 16.0107 9C16.0107 5.132 12.8777 2 9.01074 2C5.14274 2 2.01074 5.132 2.01074 9C2.01074 12.867 5.14274 16 9.01074 16C10.8312 16.0029 12.5806 15.2941 13.8857 14.025L14.0357 13.875Z" fill="white"/>
</svg>
